<svg version="1.2" xmlns="http://www.w3.org/2000/svg" viewBox="0 0 512 512" width="128" height="128"><style>.a{fill:#657e95}.b{fill:#8da3b5}.c{fill:#f1f1f1}.d{fill:#486e8d}.e{fill:#fff;stroke:#4f687e;stroke-miterlimit:100;stroke-width:2}.f{fill:#4c6f8c;stroke:#4c6f8c;stroke-linecap:round;stroke-linejoin:round;stroke-width:15}.g{fill:#486e8d;stroke:#4c6f8c;stroke-linecap:round;stroke-linejoin:round;stroke-width:10}</style><path fill-rule="evenodd" class="a" d="m402 203l54 168h-400l53-168z"/><path fill-rule="evenodd" class="b" d="m400 130v79h-289v-79z"/><path fill-rule="evenodd" class="c" d="m255.5 298c-13 0-23.5-19-23.5-42.5 0-23.5 10.5-42.5 23.5-42.5 13 0 23.5 19 23.5 42.5 0 23.5-10.5 42.5-23.5 42.5z"/><path fill-rule="evenodd" class="c" d="m255.5 273c-62.2 0-112.5-50.3-112.5-112.5 0-62.2 50.3-112.5 112.5-112.5 62.2 0 112.5 50.3 112.5 112.5 0 62.2-50.3 112.5-112.5 112.5z"/><path fill-rule="evenodd" class="d" d="m399.9 129.1l88 207.5-47-0.2-41-127.9z"/><path fill-rule="evenodd" class="d" d="m111.9 129.1l-88 207.5 47-0.2 41-127.9z"/><path class="e" d="m25 335.9c60.4 0 121.2 0.1 183.3 0.1 5.4 10.3 10.7 20.6 15.9 31 21 0 42 0 63.6 0 4.9-9.8 14.8-29.9 15.9-31 2.3-0.1 160.5-0.1 183.3-0.1 0.1 16.1 0 117.8-0.1 118.9q0.1 1.4 0.1 2.8c-0.7 3.3-1.8 4.3-4.5 6.4-2.7 0.4-4.8 0.6-7.4 0.6-0.8 0-439.1-0.1-440.2-0.1-3.4 0-5.1-0.3-7.8-2.4-1.9-2.6-2.1-4-2-7.3-0.1-1-0.1-97.9-0.1-118.9z"/><path fill-rule="evenodd" class="f" d="m209 117.5l4.9-3.5 89.4 90.4-4.8 3.6z"/><path fill-rule="evenodd" class="f" d="m303.3 117.5l-4.8-3.5-89.5 90.4 4.9 3.6z"/><path fill-rule="evenodd" class="g" d="m389 401.9v-4.8h61v4.8z"/><path fill-rule="evenodd" class="g" d="m389 425.9v-4.8h61v4.8z"/></svg>